<svg xmlns="http://www.w3.org/2000/svg" version="1.1" xmlns:xlink="http://www.w3.org/1999/xlink" xmlns:svgjs="http://svgjs.com/svgjs" width="1440" height="487" preserveAspectRatio="none" viewBox="0 0 1440 487"><g mask="url(&quot;#SvgjsMask1094&quot;)" fill="none"><path d="M 0,122 C 57.6,120.4 172.8,105.6 288,114 C 403.2,122.4 460.8,167.2 576,164 C 691.2,160.8 748.8,84.4 864,98 C 979.2,111.6 1036.8,230 1152,232 C 1267.2,234 1382.4,132.8 1440,108L1440 487L0 487z" fill="#184a7e"></path><path d="M 0,474 C 96,449.6 288,371.4 480,352 C 672,332.6 768,394.2 960,377 C 1152,359.8 1344,288.2 1440,266L1440 487L0 487z" fill="#2264ab"></path></g><defs><mask id="SvgjsMask1094"><rect width="1440" height="487" fill="#ffffff"></rect></mask></defs></svg>